<?xml version="1.0" encoding="iso-8859-1"?>
<!-- Generator: Adobe Illustrator 20.1.0, SVG Export Plug-In . SVG Version: 6.00 Build 0)  -->
<svg version="1.1" id="Phone-33" xmlns="http://www.w3.org/2000/svg" xmlns:xlink="http://www.w3.org/1999/xlink" x="0px" y="0px"
	 viewBox="0 0 28.254 28.233" style="enable-background:new 0 0 28.254 28.233;" xml:space="preserve">
<g>
	<rect x="-3.944" y="13.936" transform="matrix(0.7071 -0.7071 0.7071 0.7071 -6.9531 13.0857)" width="32.527" height="2"/>
	<path d="M27.668,20.384l-4.242-4.242c-0.377-0.378-0.879-0.586-1.413-0.586c0,0-0.001,0-0.002,0c-0.534,0-1.036,0.209-1.413,0.586
		l-2.828,2.828l-2.243-2.243l-1.414,1.414l2.95,2.95c0.188,0.188,0.442,0.293,0.707,0.293s0.52-0.105,0.707-0.293l3.535-3.536
		l4.243,4.244l-4.202,4.205c-0.026,0.02-2.621,1.9-10.561-5.309l-1.345,1.48c5.426,4.927,8.878,6.057,10.904,6.057
		c1.501,0,2.219-0.622,2.375-0.776l4.242-4.242c0.378-0.378,0.587-0.881,0.586-1.416C28.254,21.265,28.046,20.762,27.668,20.384z"/>
	<path d="M6.58,15.786c-6.1-7.137-4.361-9.542-4.367-9.542L6.455,2l4.243,4.244L7.163,9.779C6.976,9.966,6.87,10.221,6.87,10.486
		s0.105,0.52,0.293,0.707l1.95,1.949l1.414-1.414l-1.243-1.242l2.828-2.828c0.78-0.78,0.78-2.05-0.001-2.83L7.869,0.585
		C7.492,0.208,6.99,0,6.456,0H6.455C5.92,0,5.418,0.209,5.041,0.587L0.796,4.831C0.455,5.175-2.332,8.439,5.059,17.086L6.58,15.786z
		"/>
</g>
</svg>
