<?xml version="1.0" encoding="UTF-8" standalone="no" ?>
<!DOCTYPE svg PUBLIC "-//W3C//DTD SVG 1.1//EN" "http://www.w3.org/Graphics/SVG/1.1/DTD/svg11.dtd">
<svg xmlns="http://www.w3.org/2000/svg" xmlns:xlink="http://www.w3.org/1999/xlink" version="1.1" width="480" height="480" viewBox="0 0 480 480" xml:space="preserve">
<desc>Created with Fabric.js 3.6.3</desc>
<defs>
</defs>
<g transform="matrix(-12.68 0 0 12.68 240.88 238.13)"  >
<g style=""   >
		<g transform="matrix(1 0 0 1 0 -4.5)"  >
<path style="stroke: none; stroke-width: 1; stroke-dasharray: none; stroke-linecap: butt; stroke-dashoffset: 0; stroke-linejoin: miter; stroke-miterlimit: 4; fill: rgb(255,255,255); fill-rule: nonzero; opacity: 1;"  transform=" translate(-16, -11.5)" d="M 16 21 a 5 5 0 0 0 5 -5 V 7 A 5 5 0 0 0 11 7 v 9 A 5 5 0 0 0 16 21 Z M 13 7 a 3 3 0 0 1 6 0 v 9 a 3 3 0 0 1 -6 0 Z" stroke-linecap="round" />
</g>
		<g transform="matrix(1 0 0 1 0 5.99)"  >
<path style="stroke: none; stroke-width: 1; stroke-dasharray: none; stroke-linecap: butt; stroke-dashoffset: 0; stroke-linejoin: miter; stroke-miterlimit: 4; fill: rgb(255,255,255); fill-rule: nonzero; opacity: 1;"  transform=" translate(-16, -22)" d="M 25 14.9 a 1 1 0 0 0 -2 0.2 a 7.25 7.25 0 0 1 -1.86 5.57 a 6.83 6.83 0 0 1 -10.28 0 A 7.25 7.25 0 0 1 9 15.1 a 1 1 0 1 0 -2 -0.2 A 9.28 9.28 0 0 0 9.38 22 A 9 9 0 0 0 15 24.94 s 0 0 0 0.06 v 3 H 12 a 1 1 0 0 0 0 2 h 8 a 1 1 0 0 0 0 -2 H 17 V 25 s 0 0 0 -0.06 A 9 9 0 0 0 22.62 22 A 9.28 9.28 0 0 0 25 14.9 Z" stroke-linecap="round" />
</g>
</g>
</g>
<g transform="matrix(1 0 0 1 110 357)"  >
<line style="stroke: rgb(0,0,0); stroke-width: 2; stroke-dasharray: none; stroke-linecap: butt; stroke-dashoffset: 0; stroke-linejoin: miter; stroke-miterlimit: 4; fill: rgb(255,255,255); fill-rule: nonzero; opacity: 1;" vector-effect="non-scaling-stroke"  x1="0" y1="0" x2="0" y2="0" />
</g>
<g transform="matrix(1 0 0 1 390 120)"  >
<line style="stroke: rgb(0,0,0); stroke-width: 2; stroke-dasharray: none; stroke-linecap: butt; stroke-dashoffset: 0; stroke-linejoin: miter; stroke-miterlimit: 4; fill: rgb(255,255,255); fill-rule: nonzero; opacity: 1;" vector-effect="non-scaling-stroke"  x1="0" y1="0" x2="0" y2="0" />
</g>
</svg>