<?xml version="1.0" encoding="UTF-8" standalone="no" ?>
<!DOCTYPE svg PUBLIC "-//W3C//DTD SVG 1.1//EN" "http://www.w3.org/Graphics/SVG/1.1/DTD/svg11.dtd">
<svg xmlns="http://www.w3.org/2000/svg" xmlns:xlink="http://www.w3.org/1999/xlink" version="1.1" width="480" height="480" viewBox="0 0 480 480" xml:space="preserve">
<desc>Created with Fabric.js 3.6.3</desc>
<defs>
</defs>
<g transform="matrix(4.9 0 0 4.9 237.7 237.6)"  >
<path style="stroke: none; stroke-width: 0; stroke-dasharray: none; stroke-linecap: butt; stroke-dashoffset: 0; stroke-linejoin: miter; stroke-miterlimit: 4; fill: rgb(255,255,255); fill-rule: nonzero; opacity: 1;"  transform=" translate(-38, -38)" d="M 72.9 14.4 L 56 25.3 V 22 c 0 -4.4 -3.6 -8 -8 -8 H 8 c -4.4 0 -8 3.6 -8 8 v 32 c 0 4.4 3.6 8 8 8 h 40 c 4.4 0 8 -3.6 8 -8 v -3.3 l 16.9 10.9 c 1.9 1 3.1 -0.7 3.1 -1.7 V 16 C 76 15 74.9 13.2 72.9 14.4 z M 52 54 c 0 2.2 -1.8 4 -4 4 H 8 c -2.2 0 -4 -1.8 -4 -4 V 22 c 0 -2.2 1.8 -4 4 -4 h 40 c 2.2 0 4 1.8 4 4 V 54 z M 72 56.3 L 56 46 V 30 l 16 -10.3 V 56.3 z" stroke-linecap="round" />
</g>
<g transform="matrix(1 0 0 1 210.5 246)"  >
<line style="stroke: rgb(255,255,255); stroke-width: 10; stroke-dasharray: none; stroke-linecap: butt; stroke-dashoffset: 0; stroke-linejoin: miter; stroke-miterlimit: 4; fill: rgb(0,0,0); fill-rule: nonzero; opacity: 1;" vector-effect="non-scaling-stroke"  x1="-164.5" y1="149" x2="164.5" y2="-149" />
</g>
</svg>