<svg id="visual" viewBox="0 0 900 600" width="900" height="600" xmlns="http://www.w3.org/2000/svg" xmlns:xlink="http://www.w3.org/1999/xlink" version="1.1"><path d="M0 169L11.5 170C23 171 46 173 69 177C92 181 115 187 138.2 182C161.3 177 184.7 161 207.8 153C231 145 254 145 277 153C300 161 323 177 346 177C369 177 392 161 415.2 166C438.3 171 461.7 197 484.8 195C508 193 531 163 554 146C577 129 600 125 623 139C646 153 669 185 692.2 195C715.3 205 738.7 193 761.8 180C785 167 808 153 831 152C854 151 877 163 888.5 169L900 175L900 0L888.5 0C877 0 854 0 831 0C808 0 785 0 761.8 0C738.7 0 715.3 0 692.2 0C669 0 646 0 623 0C600 0 577 0 554 0C531 0 508 0 484.8 0C461.7 0 438.3 0 415.2 0C392 0 369 0 346 0C323 0 300 0 277 0C254 0 231 0 207.8 0C184.7 0 161.3 0 138.2 0C115 0 92 0 69 0C46 0 23 0 11.5 0L0 0Z" fill="#f1ede3"></path><path d="M0 247L11.5 246C23 245 46 243 69 247C92 251 115 261 138.2 255C161.3 249 184.7 227 207.8 219C231 211 254 217 277 227C300 237 323 251 346 250C369 249 392 233 415.2 241C438.3 249 461.7 281 484.8 279C508 277 531 241 554 226C577 211 600 217 623 236C646 255 669 287 692.2 290C715.3 293 738.7 267 761.8 252C785 237 808 233 831 234C854 235 877 241 888.5 244L900 247L900 173L888.5 167C877 161 854 149 831 150C808 151 785 165 761.8 178C738.7 191 715.3 203 692.2 193C669 183 646 151 623 137C600 123 577 127 554 144C531 161 508 191 484.8 193C461.7 195 438.3 169 415.2 164C392 159 369 175 346 175C323 175 300 159 277 151C254 143 231 143 207.8 151C184.7 159 161.3 175 138.2 180C115 185 92 179 69 175C46 171 23 169 11.5 168L0 167Z" fill="#e4e0d6"></path><path d="M0 295L11.5 298C23 301 46 307 69 317C92 327 115 341 138.2 335C161.3 329 184.7 303 207.8 289C231 275 254 273 277 283C300 293 323 315 346 316C369 317 392 297 415.2 306C438.3 315 461.7 353 484.8 354C508 355 531 319 554 304C577 289 600 295 623 309C646 323 669 345 692.2 348C715.3 351 738.7 335 761.8 325C785 315 808 311 831 309C854 307 877 307 888.5 307L900 307L900 245L888.5 242C877 239 854 233 831 232C808 231 785 235 761.8 250C738.7 265 715.3 291 692.2 288C669 285 646 253 623 234C600 215 577 209 554 224C531 239 508 275 484.8 277C461.7 279 438.3 247 415.2 239C392 231 369 247 346 248C323 249 300 235 277 225C254 215 231 209 207.8 217C184.7 225 161.3 247 138.2 253C115 259 92 249 69 245C46 241 23 243 11.5 244L0 245Z" fill="#d7d4ca"></path><path d="M0 505L11.5 499C23 493 46 481 69 479C92 477 115 485 138.2 494C161.3 503 184.7 513 207.8 510C231 507 254 491 277 489C300 487 323 499 346 497C369 495 392 479 415.2 482C438.3 485 461.7 507 484.8 511C508 515 531 501 554 498C577 495 600 503 623 504C646 505 669 499 692.2 496C715.3 493 738.7 493 761.8 494C785 495 808 497 831 496C854 495 877 491 888.5 489L900 487L900 305L888.5 305C877 305 854 305 831 307C808 309 785 313 761.8 323C738.7 333 715.3 349 692.2 346C669 343 646 321 623 307C600 293 577 287 554 302C531 317 508 353 484.8 352C461.7 351 438.3 313 415.2 304C392 295 369 315 346 314C323 313 300 291 277 281C254 271 231 273 207.8 287C184.7 301 161.3 327 138.2 333C115 339 92 325 69 315C46 305 23 299 11.5 296L0 293Z" fill="#cac7bd"></path><path d="M0 601L11.5 601C23 601 46 601 69 601C92 601 115 601 138.2 601C161.3 601 184.7 601 207.8 601C231 601 254 601 277 601C300 601 323 601 346 601C369 601 392 601 415.2 601C438.3 601 461.7 601 484.8 601C508 601 531 601 554 601C577 601 600 601 623 601C646 601 669 601 692.2 601C715.3 601 738.7 601 761.8 601C785 601 808 601 831 601C854 601 877 601 888.5 601L900 601L900 485L888.5 487C877 489 854 493 831 494C808 495 785 493 761.8 492C738.7 491 715.3 491 692.2 494C669 497 646 503 623 502C600 501 577 493 554 496C531 499 508 513 484.8 509C461.7 505 438.3 483 415.2 480C392 477 369 493 346 495C323 497 300 485 277 487C254 489 231 505 207.8 508C184.7 511 161.3 501 138.2 492C115 483 92 475 69 477C46 479 23 491 11.5 497L0 503Z" fill="#bebbb1"></path></svg>