<svg id="visual" viewBox="0 0 960 540" width="960" height="540" xmlns="http://www.w3.org/2000/svg" xmlns:xlink="http://www.w3.org/1999/xlink" version="1.1"><path d="M0 152L12.3 153C24.7 154 49.3 156 74 159.7C98.7 163.3 123.3 168.7 148 164.2C172.7 159.7 197.3 145.3 221.8 138.2C246.3 131 270.7 131 295.2 138.2C319.7 145.3 344.3 159.7 369 159.7C393.7 159.7 418.3 145.3 443 149.8C467.7 154.3 492.3 177.7 517 175.8C541.7 174 566.3 147 591 131.7C615.7 116.3 640.3 112.7 664.8 125.2C689.3 137.7 713.7 166.3 738.2 175.3C762.7 184.3 787.3 173.7 812 162C836.7 150.3 861.3 137.7 886 136.8C910.7 136 935.3 147 947.7 152.5L960 158L960 0L947.7 0C935.3 0 910.7 0 886 0C861.3 0 836.7 0 812 0C787.3 0 762.7 0 738.2 0C713.7 0 689.3 0 664.8 0C640.3 0 615.7 0 591 0C566.3 0 541.7 0 517 0C492.3 0 467.7 0 443 0C418.3 0 393.7 0 369 0C344.3 0 319.7 0 295.2 0C270.7 0 246.3 0 221.8 0C197.3 0 172.7 0 148 0C123.3 0 98.7 0 74 0C49.3 0 24.7 0 12.3 0L0 0Z" fill="#f1ede3"></path><path d="M0 222L12.3 221.2C24.7 220.3 49.3 218.7 74 222.3C98.7 226 123.3 235 148 229.7C172.7 224.3 197.3 204.7 221.8 197.5C246.3 190.3 270.7 195.7 295.2 204.7C319.7 213.7 344.3 226.3 369 225.3C393.7 224.3 418.3 209.7 443 216.8C467.7 224 492.3 253 517 251.3C541.7 249.7 566.3 217.3 591 203.8C615.7 190.3 640.3 195.7 664.8 212.7C689.3 229.7 713.7 258.3 738.2 261C762.7 263.7 787.3 240.3 812 226.8C836.7 213.3 861.3 209.7 886 210.5C910.7 211.3 935.3 216.7 947.7 219.3L960 222L960 156L947.7 150.5C935.3 145 910.7 134 886 134.8C861.3 135.7 836.7 148.3 812 160C787.3 171.7 762.7 182.3 738.2 173.3C713.7 164.3 689.3 135.7 664.8 123.2C640.3 110.7 615.7 114.3 591 129.7C566.3 145 541.7 172 517 173.8C492.3 175.7 467.7 152.3 443 147.8C418.3 143.3 393.7 157.7 369 157.7C344.3 157.7 319.7 143.3 295.2 136.2C270.7 129 246.3 129 221.8 136.2C197.3 143.3 172.7 157.7 148 162.2C123.3 166.7 98.7 161.3 74 157.7C49.3 154 24.7 152 12.3 151L0 150Z" fill="#e4e0d6"></path><path d="M0 266L12.3 268.7C24.7 271.3 49.3 276.7 74 285.7C98.7 294.7 123.3 307.3 148 301.8C172.7 296.3 197.3 272.7 221.8 260C246.3 247.3 270.7 245.7 295.2 254.7C319.7 263.7 344.3 283.3 369 284.2C393.7 285 418.3 267 443 275.2C467.7 283.3 492.3 317.7 517 318.7C541.7 319.7 566.3 287.3 591 273.8C615.7 260.3 640.3 265.7 664.8 278.2C689.3 290.7 713.7 310.3 738.2 313C762.7 315.7 787.3 301.3 812 292.3C836.7 283.3 861.3 279.7 886 277.8C910.7 276 935.3 276 947.7 276L960 276L960 220L947.7 217.3C935.3 214.7 910.7 209.3 886 208.5C861.3 207.7 836.7 211.3 812 224.8C787.3 238.3 762.7 261.7 738.2 259C713.7 256.3 689.3 227.7 664.8 210.7C640.3 193.7 615.7 188.3 591 201.8C566.3 215.3 541.7 247.7 517 249.3C492.3 251 467.7 222 443 214.8C418.3 207.7 393.7 222.3 369 223.3C344.3 224.3 319.7 211.7 295.2 202.7C270.7 193.7 246.3 188.3 221.8 195.5C197.3 202.7 172.7 222.3 148 227.7C123.3 233 98.7 224 74 220.3C49.3 216.7 24.7 218.3 12.3 219.2L0 220Z" fill="#d7d4ca"></path><path d="M0 455L12.3 449.5C24.7 444 49.3 433 74 431.2C98.7 429.3 123.3 436.7 148 444.8C172.7 453 197.3 462 221.8 459.3C246.3 456.7 270.7 442.3 295.2 440.5C319.7 438.7 344.3 449.3 369 447.5C393.7 445.7 418.3 431.3 443 434C467.7 436.7 492.3 456.3 517 459.8C541.7 463.3 566.3 450.7 591 448C615.7 445.3 640.3 452.7 664.8 453.7C689.3 454.7 713.7 449.3 738.2 446.7C762.7 444 787.3 444 812 444.8C836.7 445.7 861.3 447.3 886 446.3C910.7 445.3 935.3 441.7 947.7 439.8L960 438L960 274L947.7 274C935.3 274 910.7 274 886 275.8C861.3 277.7 836.7 281.3 812 290.3C787.3 299.3 762.7 313.7 738.2 311C713.7 308.3 689.3 288.7 664.8 276.2C640.3 263.7 615.7 258.3 591 271.8C566.3 285.3 541.7 317.7 517 316.7C492.3 315.7 467.7 281.3 443 273.2C418.3 265 393.7 283 369 282.2C344.3 281.3 319.7 261.7 295.2 252.7C270.7 243.7 246.3 245.3 221.8 258C197.3 270.7 172.7 294.3 148 299.8C123.3 305.3 98.7 292.7 74 283.7C49.3 274.7 24.7 269.3 12.3 266.7L0 264Z" fill="#cac7bd"></path><path d="M0 541L12.3 541C24.7 541 49.3 541 74 541C98.7 541 123.3 541 148 541C172.7 541 197.3 541 221.8 541C246.3 541 270.7 541 295.2 541C319.7 541 344.3 541 369 541C393.7 541 418.3 541 443 541C467.7 541 492.3 541 517 541C541.7 541 566.3 541 591 541C615.7 541 640.3 541 664.8 541C689.3 541 713.7 541 738.2 541C762.7 541 787.3 541 812 541C836.7 541 861.3 541 886 541C910.7 541 935.3 541 947.7 541L960 541L960 436L947.7 437.8C935.3 439.7 910.7 443.3 886 444.3C861.3 445.3 836.7 443.7 812 442.8C787.3 442 762.7 442 738.2 444.7C713.7 447.3 689.3 452.7 664.8 451.7C640.3 450.7 615.7 443.3 591 446C566.3 448.7 541.7 461.3 517 457.8C492.3 454.3 467.7 434.7 443 432C418.3 429.3 393.7 443.7 369 445.5C344.3 447.3 319.7 436.7 295.2 438.5C270.7 440.3 246.3 454.7 221.8 457.3C197.3 460 172.7 451 148 442.8C123.3 434.7 98.7 427.3 74 429.2C49.3 431 24.7 442 12.3 447.5L0 453Z" fill="#bebbb1"></path></svg>