<svg id="visual" viewBox="0 0 900 600" width="900" height="600" xmlns="http://www.w3.org/2000/svg" xmlns:xlink="http://www.w3.org/1999/xlink" version="1.1"><path d="M0 127L13.7 132C27.3 137 54.7 147 82 153C109.3 159 136.7 161 163.8 151C191 141 218 119 245.2 122C272.3 125 299.7 153 327 177C354.3 201 381.7 221 409 206C436.3 191 463.7 141 491 137C518.3 133 545.7 175 573 189C600.3 203 627.7 189 654.8 174C682 159 709 143 736.2 154C763.3 165 790.7 203 818 200C845.3 197 872.7 153 886.3 131L900 109L900 0L886.3 0C872.7 0 845.3 0 818 0C790.7 0 763.3 0 736.2 0C709 0 682 0 654.8 0C627.7 0 600.3 0 573 0C545.7 0 518.3 0 491 0C463.7 0 436.3 0 409 0C381.7 0 354.3 0 327 0C299.7 0 272.3 0 245.2 0C218 0 191 0 163.8 0C136.7 0 109.3 0 82 0C54.7 0 27.3 0 13.7 0L0 0Z" fill="#f6f3ec"></path><path d="M0 223L13.7 219C27.3 215 54.7 207 82 203C109.3 199 136.7 199 163.8 189C191 179 218 159 245.2 170C272.3 181 299.7 223 327 252C354.3 281 381.7 297 409 283C436.3 269 463.7 225 491 215C518.3 205 545.7 229 573 237C600.3 245 627.7 237 654.8 226C682 215 709 201 736.2 212C763.3 223 790.7 259 818 259C845.3 259 872.7 223 886.3 205L900 187L900 107L886.3 129C872.7 151 845.3 195 818 198C790.7 201 763.3 163 736.2 152C709 141 682 157 654.8 172C627.7 187 600.3 201 573 187C545.7 173 518.3 131 491 135C463.7 139 436.3 189 409 204C381.7 219 354.3 199 327 175C299.7 151 272.3 123 245.2 120C218 117 191 139 163.8 149C136.7 159 109.3 157 82 151C54.7 145 27.3 135 13.7 130L0 125Z" fill="#f4f0e7"></path><path d="M0 331L13.7 316C27.3 301 54.7 271 82 269C109.3 267 136.7 293 163.8 296C191 299 218 279 245.2 281C272.3 283 299.7 307 327 331C354.3 355 381.7 379 409 366C436.3 353 463.7 303 491 297C518.3 291 545.7 329 573 336C600.3 343 627.7 319 654.8 306C682 293 709 291 736.2 301C763.3 311 790.7 333 818 325C845.3 317 872.7 279 886.3 260L900 241L900 185L886.3 203C872.7 221 845.3 257 818 257C790.7 257 763.3 221 736.2 210C709 199 682 213 654.8 224C627.7 235 600.3 243 573 235C545.7 227 518.3 203 491 213C463.7 223 436.3 267 409 281C381.7 295 354.3 279 327 250C299.7 221 272.3 179 245.2 168C218 157 191 177 163.8 187C136.7 197 109.3 197 82 201C54.7 205 27.3 213 13.7 217L0 221Z" fill="#f1ede3"></path><path d="M0 439L13.7 426C27.3 413 54.7 387 82 390C109.3 393 136.7 425 163.8 427C191 429 218 401 245.2 393C272.3 385 299.7 397 327 418C354.3 439 381.7 469 409 466C436.3 463 463.7 427 491 422C518.3 417 545.7 443 573 451C600.3 459 627.7 449 654.8 440C682 431 709 423 736.2 428C763.3 433 790.7 451 818 439C845.3 427 872.7 385 886.3 364L900 343L900 239L886.3 258C872.7 277 845.3 315 818 323C790.7 331 763.3 309 736.2 299C709 289 682 291 654.8 304C627.7 317 600.3 341 573 334C545.7 327 518.3 289 491 295C463.7 301 436.3 351 409 364C381.7 377 354.3 353 327 329C299.7 305 272.3 281 245.2 279C218 277 191 297 163.8 294C136.7 291 109.3 265 82 267C54.7 269 27.3 299 13.7 314L0 329Z" fill="#ece6d8"></path><path d="M0 601L13.7 601C27.3 601 54.7 601 82 601C109.3 601 136.7 601 163.8 601C191 601 218 601 245.2 601C272.3 601 299.7 601 327 601C354.3 601 381.7 601 409 601C436.3 601 463.7 601 491 601C518.3 601 545.7 601 573 601C600.3 601 627.7 601 654.8 601C682 601 709 601 736.2 601C763.3 601 790.7 601 818 601C845.3 601 872.7 601 886.3 601L900 601L900 341L886.3 362C872.7 383 845.3 425 818 437C790.7 449 763.3 431 736.2 426C709 421 682 429 654.8 438C627.7 447 600.3 457 573 449C545.7 441 518.3 415 491 420C463.7 425 436.3 461 409 464C381.7 467 354.3 437 327 416C299.7 395 272.3 383 245.2 391C218 399 191 427 163.8 425C136.7 423 109.3 391 82 388C54.7 385 27.3 411 13.7 424L0 437Z" fill="#e7e0ce"></path></svg>