<svg width="425.102" height="103.5" viewBox="0 0 425.102 103.5" xmlns="http://www.w3.org/2000/svg"><g id="svgGroup" stroke-linecap="round" fill-rule="evenodd" font-size="9pt" stroke="#000" stroke-width="0.25mm" fill="black" style="stroke:#000;stroke-width:0.25mm;fill:black"><path d="M 280.3 50.4 L 280.2 77.4 A 0.863 0.863 0 0 1 279.963 77.992 Q 279.839 78.13 279.65 78.25 A 2.175 2.175 0 0 1 278.909 78.542 A 3.05 3.05 0 0 1 278.3 78.6 A 2.187 2.187 0 0 1 277.763 78.54 Q 277.065 78.363 276.932 77.662 A 1.933 1.933 0 0 1 276.9 77.3 Q 276.9 55.5 277.4 37.7 A 508.651 508.651 0 0 1 277.606 31.856 Q 278 22.125 278.9 6.6 L 279.2 1.9 A 7.314 7.314 0 0 1 279.263 1.394 Q 279.375 0.7 279.6 0.4 Q 279.823 0.103 280.32 0.027 A 2.504 2.504 0 0 1 280.7 0 Q 282.433 0 282.312 1.668 A 3.445 3.445 0 0 1 282.3 1.8 L 280.3 40.2 A 23.614 23.614 0 0 1 285.2 33.477 A 29.377 29.377 0 0 1 287.65 31.35 A 18.056 18.056 0 0 1 295.98 27.805 A 24.339 24.339 0 0 1 299.9 27.5 A 19.176 19.176 0 0 1 304.066 27.927 Q 306.924 28.563 309.04 30.147 A 11.624 11.624 0 0 1 310 30.95 Q 312.931 33.683 314.606 38.642 A 32.792 32.792 0 0 1 315.4 41.4 Q 316.472 45.764 316.958 51.623 A 109.114 109.114 0 0 1 317.2 55.35 Q 317.506 61.667 317.578 71.178 A 812.768 812.768 0 0 1 317.6 77.3 A 1.743 1.743 0 0 1 317.509 77.888 Q 317.234 78.658 316.126 78.698 A 3.444 3.444 0 0 1 316 78.7 Q 314.5 78.7 314.5 77.2 A 1029.132 1029.132 0 0 0 314.431 70.322 Q 314.341 63.664 314.171 58.801 A 255.426 255.426 0 0 0 314 54.75 Q 313.6 46.9 312.2 41.6 A 24.933 24.933 0 0 0 310.998 38.144 Q 310.221 36.375 309.227 35.021 A 11.935 11.935 0 0 0 307.75 33.35 A 9.845 9.845 0 0 0 303.356 31.02 Q 301.848 30.64 300.071 30.604 A 18.485 18.485 0 0 0 299.7 30.6 A 18.043 18.043 0 0 0 294.033 31.46 A 15.514 15.514 0 0 0 289.1 34.15 Q 284.7 37.7 282.5 42.45 A 32.895 32.895 0 0 0 281.341 45.265 Q 280.3 48.199 280.3 50.4 Z M 158.2 61.4 L 159 67.2 Q 159.613 71.488 159.991 74.31 A 333.408 333.408 0 0 1 160.2 75.9 A 66.26 66.26 0 0 1 160.411 77.721 Q 160.588 79.47 160.599 80.724 A 18.845 18.845 0 0 1 160.6 80.9 A 26.085 26.085 0 0 1 159.748 87.685 A 21.978 21.978 0 0 1 157.75 92.65 Q 154.9 97.8 149.65 100.65 A 23.385 23.385 0 0 1 141.652 103.222 A 30.032 30.032 0 0 1 137.5 103.5 Q 132.5 103.5 128.05 101.3 Q 123.6 99.1 120.9 95.45 Q 118.2 91.8 118.2 87.7 A 1.287 1.287 0 0 1 118.274 87.254 A 1.12 1.12 0 0 1 118.65 86.75 A 1.616 1.616 0 0 1 119.31 86.449 A 2.313 2.313 0 0 1 119.8 86.4 A 1.276 1.276 0 0 1 120.749 86.796 A 1.567 1.567 0 0 1 120.8 86.85 A 1.78 1.78 0 0 1 121.048 87.202 A 1.269 1.269 0 0 1 121.2 87.8 A 9.083 9.083 0 0 0 122.441 92.338 A 12.197 12.197 0 0 0 123.5 93.9 A 16.133 16.133 0 0 0 127.759 97.627 A 19.89 19.89 0 0 0 129.55 98.6 Q 133.3 100.4 137.5 100.4 Q 143.8 100.4 148.35 97.75 Q 152.9 95.1 155.2 90.65 A 20.843 20.843 0 0 0 157.498 81.231 A 24.246 24.246 0 0 0 157.5 80.9 A 43.132 43.132 0 0 0 157.437 78.646 Q 157.371 77.391 157.236 75.968 A 86.522 86.522 0 0 0 157.05 74.2 Q 156.706 71.214 156.273 68.873 A 49.298 49.298 0 0 0 156 67.5 A 19.75 19.75 0 0 1 149.406 74.128 A 23.698 23.698 0 0 1 148.35 74.75 A 21.66 21.66 0 0 1 140.954 77.204 A 28.181 28.181 0 0 1 136.8 77.5 A 27.999 27.999 0 0 1 130.769 76.883 A 20.167 20.167 0 0 1 123.7 73.9 Q 118.4 70.3 115.8 64.65 Q 113.2 59 113.2 52.9 Q 113.2 46.6 115.95 40.8 Q 118.7 35 123.9 31.35 A 20.093 20.093 0 0 1 133.499 27.839 A 25.628 25.628 0 0 1 136.2 27.7 Q 141.5 27.7 145.5 29.5 A 26.616 26.616 0 0 1 148.014 30.785 Q 150.188 32.056 151.5 33.5 L 152.3 30.5 A 208.247 208.247 0 0 1 152.538 29.652 Q 153.317 26.891 153.497 26.606 A 0.25 0.25 0 0 1 153.5 26.6 Q 153.791 25.959 154.218 25.692 A 1.258 1.258 0 0 1 154.9 25.5 Q 155.5 25.5 156.05 25.8 A 1.388 1.388 0 0 1 156.316 25.985 A 0.8 0.8 0 0 1 156.6 26.6 L 156.5 27.6 A 23.181 23.181 0 0 1 156.381 28.203 Q 156.24 28.88 156.018 29.783 A 86.741 86.741 0 0 1 155.8 30.65 Q 155.417 32.143 155.152 33.079 A 36.397 36.397 0 0 1 155 33.6 L 154.3 36.1 Q 155.295 41.306 156.642 50.323 A 930.253 930.253 0 0 1 157.5 56.2 L 158.2 61.4 Z M 217.3 52.4 L 175.7 53.6 Q 175.7 59.5 178.35 64.5 Q 181 69.5 186.05 72.45 Q 191.1 75.4 197.8 75.4 A 26.245 26.245 0 0 0 201.688 75.128 Q 203.762 74.817 205.502 74.151 A 14.8 14.8 0 0 0 206.45 73.75 A 24.048 24.048 0 0 0 208.987 72.392 Q 210.221 71.628 211.182 70.784 A 12.664 12.664 0 0 0 212 70 A 35.81 35.81 0 0 0 213.553 68.249 Q 214.928 66.601 216.5 64.4 A 0.969 0.969 0 0 1 217.117 64.026 A 1.501 1.501 0 0 1 217.4 64 A 2.102 2.102 0 0 1 218.62 64.392 A 2.613 2.613 0 0 1 218.7 64.45 A 1.604 1.604 0 0 1 219.076 64.838 A 1.338 1.338 0 0 1 219.3 65.6 A 1.142 1.142 0 0 1 219.242 65.942 Q 219.142 66.258 218.872 66.659 A 5.781 5.781 0 0 1 218.7 66.9 Q 215.4 71.9 210.75 75.2 A 15.982 15.982 0 0 1 206.062 77.427 Q 202.491 78.5 197.7 78.5 Q 189.5 78.5 183.85 74.9 Q 178.2 71.3 175.4 65.5 Q 172.6 59.7 172.6 53.2 Q 172.6 46.4 175.6 40.5 Q 178.6 34.6 184.3 30.95 A 22.989 22.989 0 0 1 193.579 27.589 A 29.929 29.929 0 0 1 197.8 27.3 A 27.826 27.826 0 0 1 204.449 28.065 A 22.815 22.815 0 0 1 209.7 30.05 A 20.927 20.927 0 0 1 216.152 35.234 A 20.066 20.066 0 0 1 217.8 37.55 A 19.94 19.94 0 0 1 220.674 47.163 A 24.115 24.115 0 0 1 220.7 48.3 Q 220.7 50.679 220.157 51.519 A 1.435 1.435 0 0 1 220.1 51.6 Q 219.621 52.239 218.122 52.368 A 9.642 9.642 0 0 1 217.3 52.4 Z M 375.3 52.4 L 333.7 53.6 Q 333.7 59.5 336.35 64.5 Q 339 69.5 344.05 72.45 Q 349.1 75.4 355.8 75.4 A 26.245 26.245 0 0 0 359.688 75.128 Q 361.762 74.817 363.502 74.151 A 14.8 14.8 0 0 0 364.45 73.75 A 24.048 24.048 0 0 0 366.987 72.392 Q 368.221 71.628 369.182 70.784 A 12.664 12.664 0 0 0 370 70 A 35.81 35.81 0 0 0 371.553 68.249 Q 372.928 66.601 374.5 64.4 A 0.969 0.969 0 0 1 375.117 64.026 A 1.501 1.501 0 0 1 375.4 64 A 2.102 2.102 0 0 1 376.62 64.392 A 2.613 2.613 0 0 1 376.7 64.45 A 1.604 1.604 0 0 1 377.076 64.838 A 1.338 1.338 0 0 1 377.3 65.6 A 1.142 1.142 0 0 1 377.242 65.942 Q 377.142 66.258 376.872 66.659 A 5.781 5.781 0 0 1 376.7 66.9 Q 373.4 71.9 368.75 75.2 A 15.982 15.982 0 0 1 364.062 77.427 Q 360.491 78.5 355.7 78.5 Q 347.5 78.5 341.85 74.9 Q 336.2 71.3 333.4 65.5 Q 330.6 59.7 330.6 53.2 Q 330.6 46.4 333.6 40.5 Q 336.6 34.6 342.3 30.95 A 22.989 22.989 0 0 1 351.579 27.589 A 29.929 29.929 0 0 1 355.8 27.3 A 27.826 27.826 0 0 1 362.449 28.065 A 22.815 22.815 0 0 1 367.7 30.05 A 20.927 20.927 0 0 1 374.152 35.234 A 20.066 20.066 0 0 1 375.8 37.55 A 19.94 19.94 0 0 1 378.674 47.163 A 24.115 24.115 0 0 1 378.7 48.3 Q 378.7 50.679 378.157 51.519 A 1.435 1.435 0 0 1 378.1 51.6 Q 377.621 52.239 376.122 52.368 A 9.642 9.642 0 0 1 375.3 52.4 Z M 396.2 71.5 L 396.2 77.1 Q 396.2 79.071 394.79 79.192 A 2.227 2.227 0 0 1 394.6 79.2 A 2.233 2.233 0 0 1 394.175 79.163 Q 393.699 79.07 393.45 78.75 A 1.286 1.286 0 0 1 393.262 78.395 Q 393.133 78.039 393.107 77.493 A 6.102 6.102 0 0 1 393.1 77.2 L 392.9 55.9 A 226.086 226.086 0 0 0 392.643 47.36 Q 392.277 39.64 391.4 30 L 391.2 27.8 L 391.2 27.6 A 1.572 1.572 0 0 1 391.275 27.104 A 1.273 1.273 0 0 1 391.7 26.5 A 1.821 1.821 0 0 1 392.728 26.106 A 2.326 2.326 0 0 1 392.9 26.1 Q 394.354 26.1 394.399 27.697 A 3.679 3.679 0 0 1 394.4 27.8 L 395.4 45.8 Q 396.027 39.849 398.046 35.899 A 15.001 15.001 0 0 1 400.95 31.9 Q 405.5 27.5 412.1 27.5 Q 416.835 27.5 419.797 29.473 A 9.41 9.41 0 0 1 421.95 31.45 Q 425.1 35.4 425.1 40.7 A 15.412 15.412 0 0 1 424.827 43.701 Q 424.479 45.451 423.689 46.798 A 7.9 7.9 0 0 1 422.3 48.55 Q 419.5 51.2 415.6 51.2 A 6.46 6.46 0 0 1 415.049 51.178 Q 414.288 51.113 413.95 50.85 A 1.079 1.079 0 0 1 413.593 50.333 Q 413.529 50.148 413.509 49.918 A 2.524 2.524 0 0 1 413.5 49.7 A 2.521 2.521 0 0 1 413.532 49.286 Q 413.568 49.067 413.647 48.896 A 1.015 1.015 0 0 1 413.9 48.55 A 1.523 1.523 0 0 1 414.291 48.307 Q 414.479 48.224 414.712 48.169 A 3.653 3.653 0 0 1 415.1 48.1 Q 418.1 47.8 420.05 46.45 Q 422 45.1 422 40.8 A 12.341 12.341 0 0 0 421.053 35.938 A 11.828 11.828 0 0 0 419.8 33.7 A 6.677 6.677 0 0 0 416.627 31.328 Q 415.461 30.884 413.998 30.711 A 17.021 17.021 0 0 0 412 30.6 A 12.838 12.838 0 0 0 406.953 31.553 Q 403.946 32.825 401.906 35.794 A 15.948 15.948 0 0 0 401.1 37.1 Q 397.5 43.6 396.6 55.7 Q 396.294 59.835 396.222 66.9 A 454.066 454.066 0 0 0 396.2 71.5 Z M 23.4 45.4 L 23.1 55.1 Q 22.6 67.3 22.4 76.6 Q 22.4 78.223 21.161 78.46 A 2.454 2.454 0 0 1 20.7 78.5 A 3.156 3.156 0 0 1 20.032 78.436 Q 19.067 78.226 18.925 77.331 A 2.105 2.105 0 0 1 18.9 77 Q 18.9 74.8 19.1 70.95 Q 19.3 67.1 19.4 64.6 Q 19.9 54.8 20.2 45.5 Q 20.506 35.93 21.282 21.494 A 2343.215 2343.215 0 0 1 21.8 12.2 Q 15.6 12.3 11.8 12.55 Q 8.891 12.742 4.34 13.138 A 792.029 792.029 0 0 0 1.4 13.4 L 1.2 13.4 A 0.998 0.998 0 0 1 0.475 13.092 A 1.468 1.468 0 0 1 0.35 12.95 A 1.616 1.616 0 0 1 0.049 12.29 A 2.313 2.313 0 0 1 0 11.8 A 2.41 2.41 0 0 1 0.058 11.25 Q 0.235 10.497 0.959 10.336 A 1.806 1.806 0 0 1 1.2 10.3 Q 11.7 9.1 24.9 9.1 A 286.909 286.909 0 0 1 33.891 9.234 Q 39.375 9.406 44.1 9.8 Q 45.7 9.9 45.7 11.5 Q 45.7 12.1 45.35 12.6 A 0.929 0.929 0 0 1 44.669 13.009 Q 44.53 13.025 44.372 13.009 A 1.752 1.752 0 0 1 44.3 13 A 240.283 240.283 0 0 0 25.588 12.201 A 221.466 221.466 0 0 0 25 12.2 Q 23.927 30.27 23.493 42.578 A 637.943 637.943 0 0 0 23.4 45.4 Z M 254.1 37.5 L 249.9 37.6 Q 248.071 37.6 244.111 37.415 A 378.932 378.932 0 0 1 243.8 37.4 A 299.288 299.288 0 0 0 243.494 41.55 Q 243.1 47.475 243.1 51.6 A 86.487 86.487 0 0 0 243.348 58.364 Q 243.607 61.657 244.137 64.455 A 37.354 37.354 0 0 0 245.2 68.75 A 14.932 14.932 0 0 0 246.355 71.502 Q 247.183 72.994 248.278 73.915 A 6.345 6.345 0 0 0 252.5 75.4 A 7.321 7.321 0 0 0 257.231 73.672 A 9.442 9.442 0 0 0 257.55 73.4 A 5.945 5.945 0 0 0 259.127 71.054 Q 259.506 70.076 259.671 68.853 A 15.335 15.335 0 0 0 259.8 66.8 Q 259.8 65.8 260.1 65.25 A 0.968 0.968 0 0 1 260.645 64.799 Q 260.919 64.7 261.3 64.7 A 2.297 2.297 0 0 1 261.751 64.741 Q 262.007 64.793 262.198 64.908 A 1.056 1.056 0 0 1 262.55 65.25 A 1.577 1.577 0 0 1 262.717 65.628 Q 262.84 66.023 262.88 66.642 A 10.173 10.173 0 0 1 262.9 67.3 Q 262.9 71.7 260 75.1 A 9.389 9.389 0 0 1 253.132 78.479 A 12.43 12.43 0 0 1 252.4 78.5 A 9.495 9.495 0 0 1 243.762 72.971 Q 241.116 68.203 240.331 59.322 A 93.868 93.868 0 0 1 240 51.1 A 115.001 115.001 0 0 1 240.099 46.535 Q 240.263 42.425 240.7 37.3 A 665.373 665.373 0 0 1 238.013 37.106 Q 235.409 36.913 233.496 36.746 A 169.724 169.724 0 0 1 231.9 36.6 Q 231.477 36.54 231.219 36.37 A 0.881 0.881 0 0 1 230.95 36.1 A 1.459 1.459 0 0 1 230.786 35.718 Q 230.7 35.41 230.7 35 Q 230.7 34.424 230.934 34.055 A 1.194 1.194 0 0 1 231.15 33.8 A 1.272 1.272 0 0 1 231.56 33.551 Q 231.842 33.447 232.17 33.496 A 1.558 1.558 0 0 1 232.2 33.5 Q 238 34.1 241 34.2 A 361.649 361.649 0 0 1 242.095 24.291 Q 242.737 19.105 243.574 13.382 A 580.246 580.246 0 0 1 243.6 13.2 Q 243.7 12.3 244.1 11.9 Q 244.5 11.5 245.2 11.5 A 2.008 2.008 0 0 1 245.728 11.566 A 1.525 1.525 0 0 1 246.35 11.9 Q 246.8 12.3 246.7 13.2 Q 244.9 25.7 244.1 34.4 A 142.601 142.601 0 0 0 245.925 34.444 Q 248.847 34.497 253.597 34.5 A 897.168 897.168 0 0 0 254.1 34.5 A 2.61 2.61 0 0 1 254.76 34.576 Q 255.8 34.849 255.8 36.1 A 1.629 1.629 0 0 1 255.696 36.709 Q 255.378 37.5 254.1 37.5 Z M 78.9 78.5 Q 68.6 78.5 61.15 72.9 A 17.109 17.109 0 0 1 55.351 64.787 Q 54.28 61.818 53.904 58.122 A 41.718 41.718 0 0 1 53.7 53.9 A 36.587 36.587 0 0 1 54.403 46.572 A 28.399 28.399 0 0 1 56.6 39.95 Q 59.5 33.9 65.05 30.45 A 22.384 22.384 0 0 1 72.796 27.506 A 30.749 30.749 0 0 1 78.5 27 A 30.033 30.033 0 0 1 86.607 28.061 A 25.992 25.992 0 0 1 91.65 30.05 Q 97.5 33.1 100.85 39.1 A 25.694 25.694 0 0 1 103.626 46.955 A 35.539 35.539 0 0 1 104.2 53.5 Q 104.2 66 97.15 72.25 A 24.37 24.37 0 0 1 85.184 77.949 A 34.317 34.317 0 0 1 78.9 78.5 Z M 78.8 75.4 A 26.201 26.201 0 0 0 86.934 74.16 A 24.141 24.141 0 0 0 89.85 73 Q 94.9 70.6 98 65.65 Q 101.1 60.7 101.1 53.4 A 29.29 29.29 0 0 0 100.463 47.15 A 22.418 22.418 0 0 0 98.2 41.05 Q 95.3 35.8 90.15 32.95 A 22.993 22.993 0 0 0 80.278 30.15 A 27.682 27.682 0 0 0 78.6 30.1 A 24.719 24.719 0 0 0 72.309 30.871 A 20.382 20.382 0 0 0 67.15 33 Q 62.2 35.9 59.5 41.25 Q 56.8 46.6 56.8 53.6 Q 56.8 59.631 58.676 63.872 A 16.264 16.264 0 0 0 60.1 66.45 A 19.851 19.851 0 0 0 64.269 70.969 A 17.402 17.402 0 0 0 68.35 73.35 Q 73.3 75.4 78.8 75.4 Z M 152 41.6 L 151.5 38.6 Q 149.844 35.191 145.626 33.063 A 19.711 19.711 0 0 0 145.4 32.95 Q 141 30.8 136.2 30.8 Q 130.6 30.8 126.05 33.85 Q 121.5 36.9 118.9 42 Q 116.3 47.1 116.3 52.9 Q 116.3 58.4 118.6 63.3 Q 120.9 68.2 125.55 71.3 A 18.208 18.208 0 0 0 132.679 74.066 A 24.482 24.482 0 0 0 136.8 74.4 Q 143.1 74.4 147.85 71.4 A 18.31 18.31 0 0 0 153.667 65.43 A 23.866 23.866 0 0 0 155.2 62.5 Q 153.9 52.5 152 41.6 Z M 175.7 50.6 L 217.1 49.3 A 1.248 1.248 0 0 0 217.292 49.286 Q 217.389 49.271 217.465 49.24 A 0.437 0.437 0 0 0 217.65 49.1 Q 217.8 48.9 217.8 48.1 A 16.771 16.771 0 0 0 216.483 41.429 A 16.155 16.155 0 0 0 215.25 39.1 A 17.911 17.911 0 0 0 208.891 33.127 A 21.324 21.324 0 0 0 208.2 32.75 A 20.842 20.842 0 0 0 200.161 30.483 A 25.311 25.311 0 0 0 198.1 30.4 A 24.021 24.021 0 0 0 191.563 31.258 A 20.021 20.021 0 0 0 186.2 33.65 A 24.582 24.582 0 0 0 181.048 37.974 A 21.255 21.255 0 0 0 178.4 41.65 A 23.771 23.771 0 0 0 176.703 45.277 Q 175.935 47.393 175.755 49.389 A 13.485 13.485 0 0 0 175.7 50.6 Z M 333.7 50.6 L 375.1 49.3 A 1.248 1.248 0 0 0 375.292 49.286 Q 375.389 49.271 375.465 49.24 A 0.437 0.437 0 0 0 375.65 49.1 Q 375.8 48.9 375.8 48.1 A 16.771 16.771 0 0 0 374.483 41.429 A 16.155 16.155 0 0 0 373.25 39.1 A 17.911 17.911 0 0 0 366.891 33.127 A 21.324 21.324 0 0 0 366.2 32.75 A 20.842 20.842 0 0 0 358.161 30.483 A 25.311 25.311 0 0 0 356.1 30.4 A 24.021 24.021 0 0 0 349.563 31.258 A 20.021 20.021 0 0 0 344.2 33.65 A 24.582 24.582 0 0 0 339.048 37.974 A 21.255 21.255 0 0 0 336.4 41.65 A 23.771 23.771 0 0 0 334.703 45.277 Q 333.935 47.393 333.755 49.389 A 13.485 13.485 0 0 0 333.7 50.6 Z" vector-effect="non-scaling-stroke"/></g></svg>